<?xml version="1.0" standalone="no"?>
<!DOCTYPE svg PUBLIC "-//W3C//DTD SVG 20010904//EN"
 "http://www.w3.org/TR/2001/REC-SVG-20010904/DTD/svg10.dtd">
<svg version="1.0" xmlns="http://www.w3.org/2000/svg"
 width="700.000000pt" height="700.000000pt" viewBox="0 0 700.000000 700.000000"
 preserveAspectRatio="xMidYMid meet">
<metadata>
Created by potrace 1.14, written by Peter Selinger 2001-2017
</metadata>
<g transform="translate(0.000000,700.000000) scale(0.100000,-0.100000)"
fill="#000000" stroke="none">
<path d="M391 4880 c1 -30 6 -71 10 -90 4 -19 9 -55 12 -80 6 -50 31 -174 53
-265 111 -446 325 -871 628 -1245 70 -87 291 -311 386 -391 286 -244 659 -457
1000 -572 105 -35 263 -81 310 -91 14 -2 57 -11 95 -19 39 -9 106 -20 150 -27
44 -6 94 -13 110 -15 154 -23 584 -23 722 0 15 2 71 11 123 20 145 23 156 25
287 59 98 25 265 76 308 95 11 5 67 28 125 52 547 226 1049 641 1384 1143 284
427 462 915 512 1401 3 33 8 63 11 68 2 4 -2 8 -9 8 -57 6 -882 2 -891 -3 -7
-4 -9 -8 -6 -8 4 0 1 -30 -6 -67 -7 -38 -16 -84 -19 -103 -3 -19 -19 -82 -35
-140 -109 -387 -290 -697 -571 -981 -218 -220 -422 -359 -714 -489 -142 -63
-410 -137 -556 -154 -147 -17 -188 -19 -310 -19 -353 1 -660 71 -980 226 -296
143 -601 398 -805 672 -220 296 -363 637 -417 993 -6 39 -14 73 -17 73 -3 1
-205 2 -449 3 l-443 1 2 -55z"/>
</g>
</svg>
