<svg xmlns="http://www.w3.org/2000/svg" width="74" height="19" fill="none">
  <path fill="currentColor"
    d="M8.545 18.364c-1.636 0-3.045-.387-4.227-1.16-1.182-.772-2.09-1.837-2.727-3.193-.636-1.356-.955-2.905-.955-4.647 0-1.773.326-3.337.978-4.693.659-1.364 1.575-2.429 2.75-3.194C5.545.705 6.924.318 8.5.318c1.227 0 2.333.228 3.318.682a6.354 6.354 0 0 1 2.42 1.91c.63.817 1.02 1.772 1.171 2.863h-2.682c-.204-.796-.659-1.5-1.363-2.114-.697-.621-1.637-.932-2.819-.932-1.045 0-1.962.273-2.75.819-.78.537-1.39 1.299-1.83 2.284-.43.977-.647 2.125-.647 3.443 0 1.348.212 2.523.637 3.523.431 1 1.037 1.776 1.818 2.33.788.552 1.712.829 2.772.829.697 0 1.33-.122 1.898-.364a3.915 3.915 0 0 0 1.443-1.045c.394-.455.675-1 .841-1.637h2.682a6.212 6.212 0 0 1-1.125 2.784c-.59.818-1.375 1.47-2.352 1.955-.97.477-2.099.716-3.387.716ZM23.186 18.41c-1.106 0-2.11-.21-3.012-.626a5.167 5.167 0 0 1-2.147-1.83c-.53-.802-.796-1.772-.796-2.909 0-1 .197-1.81.591-2.431a4.17 4.17 0 0 1 1.58-1.478 8.302 8.302 0 0 1 2.182-.795c.803-.182 1.61-.326 2.42-.432 1.06-.136 1.92-.238 2.58-.307.666-.075 1.151-.2 1.454-.375.31-.174.466-.477.466-.909v-.09c0-1.122-.307-1.993-.92-2.614-.606-.622-1.527-.932-2.762-.932-1.28 0-2.284.28-3.011.84-.727.561-1.239 1.16-1.534 1.796L17.73 4.41c.455-1.06 1.061-1.886 1.818-2.477a6.815 6.815 0 0 1 2.5-1.25 10.38 10.38 0 0 1 2.682-.364c.561 0 1.205.068 1.932.205a6.183 6.183 0 0 1 2.125.807c.69.409 1.261 1.026 1.716 1.852.455.826.682 1.932.682 3.318V18h-2.682v-2.364h-.136c-.182.38-.485.785-.91 1.216-.424.432-.988.8-1.693 1.103-.704.303-1.564.454-2.58.454Zm.409-2.41c1.06 0 1.954-.208 2.682-.625.735-.417 1.288-.954 1.659-1.614.379-.659.568-1.352.568-2.08V9.228c-.114.137-.364.262-.75.375-.379.106-.818.201-1.318.284a59.89 59.89 0 0 1-1.443.205c-.462.053-.837.098-1.125.136-.697.091-1.349.239-1.955.444-.598.197-1.083.496-1.454.897-.364.394-.546.932-.546 1.614 0 .932.345 1.636 1.034 2.114.697.47 1.58.704 2.648.704ZM37.483 7.5V18H34.8V.546h2.59v2.727h.228a4.985 4.985 0 0 1 1.864-2.137c.833-.545 1.909-.818 3.227-.818 1.182 0 2.216.243 3.102.728.887.477 1.576 1.204 2.068 2.181.493.97.739 2.197.739 3.682V18h-2.682V7.091c0-1.371-.356-2.44-1.068-3.205-.712-.772-1.69-1.159-2.932-1.159-.856 0-1.621.186-2.295.557-.667.371-1.194.913-1.58 1.625-.386.712-.58 1.576-.58 2.591ZM59.558 18.364c-1.682 0-3.133-.372-4.353-1.114-1.212-.75-2.147-1.795-2.806-3.136-.652-1.349-.978-2.917-.978-4.705 0-1.788.326-3.363.978-4.727.659-1.371 1.575-2.44 2.75-3.205C56.33.705 57.709.318 59.285.318c.91 0 1.807.152 2.693.455a6.673 6.673 0 0 1 2.42 1.477c.728.674 1.308 1.568 1.74 2.682.431 1.114.647 2.485.647 4.114v1.136H53.33V7.864h10.728c0-.985-.197-1.864-.591-2.637a4.453 4.453 0 0 0-1.66-1.83c-.711-.446-1.552-.67-2.522-.67-1.068 0-1.992.265-2.773.796a5.231 5.231 0 0 0-1.784 2.045 6.009 6.009 0 0 0-.625 2.705v1.545c0 1.318.227 2.436.682 3.353.462.909 1.102 1.602 1.92 2.08.819.469 1.77.704 2.853.704.704 0 1.34-.099 1.909-.296a4.085 4.085 0 0 0 1.488-.909 4.13 4.13 0 0 0 .966-1.523l2.591.728a5.746 5.746 0 0 1-1.375 2.318c-.644.659-1.44 1.174-2.386 1.545-.947.364-2.011.546-3.193.546ZM71.54 18.182c-.562 0-1.043-.2-1.444-.602a1.969 1.969 0 0 1-.602-1.444c0-.56.2-1.041.602-1.443a1.969 1.969 0 0 1 1.443-.602c.56 0 1.042.2 1.443.602.402.402.603.883.603 1.443 0 .372-.095.713-.285 1.023a2.12 2.12 0 0 1-.738.75 1.948 1.948 0 0 1-1.023.273Z" />
</svg>
